<?xml version="1.0" encoding="UTF-8"?>
<!DOCTYPE svg PUBLIC "-//W3C//DTD SVG 1.1//EN" "http://www.w3.org/Graphics/SVG/1.1/DTD/svg11.dtd">
<svg version="1.1" xmlns="http://www.w3.org/2000/svg" xmlns:xlink="http://www.w3.org/1999/xlink" x="0" y="0" width="288" height="288" viewBox="0, 0, 288, 288">
  <defs>
    <clipPath id="Clip_1">
      <path d="M0,0 L288,0 L288,288 L0,288 z"/>
    </clipPath>
    <clipPath id="Clip_2">
      <path d="M0,0 L288,0 L288,288 L0,288 z"/>
    </clipPath>
    <clipPath id="Clip_3">
      <path d="M0,0 L288,0 L288,288 L0,288 z"/>
    </clipPath>
    <clipPath id="Clip_4">
      <path d="M0,0 L288,0 L288,288 L0,288 z"/>
    </clipPath>
    <clipPath id="Clip_5">
      <path d="M0,0 L288,0 L288,288 L0,288 z"/>
    </clipPath>
    <clipPath id="Clip_6">
      <path d="M0,0 L288,0 L288,288 L0,288 z"/>
    </clipPath>
    <clipPath id="Clip_7">
      <path d="M0,0 L288,0 L288,288 L0,288 z"/>
    </clipPath>
    <clipPath id="Clip_8">
      <path d="M0,0 L288,0 L288,288 L0,288 z"/>
    </clipPath>
    <clipPath id="Clip_9">
      <path d="M0,0 L288,0 L288,288 L0,288 z"/>
    </clipPath>
    <clipPath id="Clip_10">
      <path d="M0,0 L288,0 L288,288 L0,288 z"/>
    </clipPath>
    <clipPath id="Clip_11">
      <path d="M0,0 L288,0 L288,288 L0,288 z"/>
    </clipPath>
    <clipPath id="Clip_12">
      <path d="M0,0 L288,0 L288,288 L0,288 z"/>
    </clipPath>
    <clipPath id="Clip_13">
      <path d="M0,0 L288,0 L288,288 L0,288 z"/>
    </clipPath>
    <clipPath id="Clip_14">
      <path d="M0,0 L288,0 L288,288 L0,288 z"/>
    </clipPath>
  </defs>
  <g id="Layer_1">
    <g>
      <path d="M0,0 L1,0 L1,1 L0,1 z" fill="#FFFFFF"/>
      <path d="M0,0 L1,0 L1,1 L0,1 z" fill-opacity="0" stroke="#000000" stroke-width="1" stroke-linecap="round" stroke-linejoin="round" stroke-miterlimit="10"/>
    </g>
    <g>
      <path d="M-5.96,-1.193 L282.04,-1.193 L282.04,286.807 L-5.96,286.807 z" fill="#FFFFFF"/>
      <path d="M-5.96,-1.193 L282.04,-1.193 L282.04,286.807 L-5.96,286.807 z" fill-opacity="0" stroke="#FFFFFF" stroke-width="1" stroke-linecap="round" stroke-linejoin="round" stroke-miterlimit="10"/>
    </g>
    <g>
      <path d="M189.29,174.45 C189.29,175.527 188.417,176.4 187.34,176.4 C186.263,176.4 185.39,175.527 185.39,174.45 C185.39,173.373 186.263,172.5 187.34,172.5 C188.417,172.5 189.29,173.373 189.29,174.45 z" fill="#000000"/>
      <path d="M189.29,174.45 C189.29,175.527 188.417,176.4 187.34,176.4 C186.263,176.4 185.39,175.527 185.39,174.45 C185.39,173.373 186.263,172.5 187.34,172.5 C188.417,172.5 189.29,173.373 189.29,174.45 z" fill-opacity="0" stroke="#000000" stroke-width="1" stroke-linecap="round" stroke-linejoin="round" stroke-miterlimit="10"/>
    </g>
    <g>
      <path d="M235.38,222.27 C235.38,223.347 234.507,224.22 233.43,224.22 C232.353,224.22 231.48,223.347 231.48,222.27 C231.48,221.193 232.353,220.32 233.43,220.32 C234.507,220.32 235.38,221.193 235.38,222.27 z" fill="#000000"/>
      <path d="M235.38,222.27 C235.38,223.347 234.507,224.22 233.43,224.22 C232.353,224.22 231.48,223.347 231.48,222.27 C231.48,221.193 232.353,220.32 233.43,220.32 C234.507,220.32 235.38,221.193 235.38,222.27 z" fill-opacity="0" stroke="#000000" stroke-width="1" stroke-linecap="round" stroke-linejoin="round" stroke-miterlimit="10"/>
    </g>
    <g>
      <path d="M194.62,196.72 C194.62,197.797 193.747,198.67 192.67,198.67 C191.593,198.67 190.72,197.797 190.72,196.72 C190.72,195.643 191.593,194.77 192.67,194.77 C193.747,194.77 194.62,195.643 194.62,196.72 z" fill="#000000"/>
      <path d="M194.62,196.72 C194.62,197.797 193.747,198.67 192.67,198.67 C191.593,198.67 190.72,197.797 190.72,196.72 C190.72,195.643 191.593,194.77 192.67,194.77 C193.747,194.77 194.62,195.643 194.62,196.72 z" fill-opacity="0" stroke="#000000" stroke-width="1" stroke-linecap="round" stroke-linejoin="round" stroke-miterlimit="10"/>
    </g>
    <g>
      <path d="M168.11,167.37 C168.11,168.447 167.237,169.32 166.16,169.32 C165.083,169.32 164.21,168.447 164.21,167.37 C164.21,166.293 165.083,165.42 166.16,165.42 C167.237,165.42 168.11,166.293 168.11,167.37 z" fill="#000000"/>
      <path d="M168.11,167.37 C168.11,168.447 167.237,169.32 166.16,169.32 C165.083,169.32 164.21,168.447 164.21,167.37 C164.21,166.293 165.083,165.42 166.16,165.42 C167.237,165.42 168.11,166.293 168.11,167.37 z" fill-opacity="0" stroke="#000000" stroke-width="1" stroke-linecap="round" stroke-linejoin="round" stroke-miterlimit="10"/>
    </g>
    <g>
      <path d="M240.85,210.32 C240.85,211.397 239.977,212.27 238.9,212.27 C237.823,212.27 236.95,211.397 236.95,210.32 C236.95,209.243 237.823,208.37 238.9,208.37 C239.977,208.37 240.85,209.243 240.85,210.32 z" fill="#000000"/>
      <path d="M240.85,210.32 C240.85,211.397 239.977,212.27 238.9,212.27 C237.823,212.27 236.95,211.397 236.95,210.32 C236.95,209.243 237.823,208.37 238.9,208.37 C239.977,208.37 240.85,209.243 240.85,210.32 z" fill-opacity="0" stroke="#000000" stroke-width="1" stroke-linecap="round" stroke-linejoin="round" stroke-miterlimit="10"/>
    </g>
    <g>
      <path d="M200.22,170.82 C200.22,171.897 199.347,172.77 198.27,172.77 C197.193,172.77 196.32,171.897 196.32,170.82 C196.32,169.743 197.193,168.87 198.27,168.87 C199.347,168.87 200.22,169.743 200.22,170.82 z" fill="#000000"/>
      <path d="M200.22,170.82 C200.22,171.897 199.347,172.77 198.27,172.77 C197.193,172.77 196.32,171.897 196.32,170.82 C196.32,169.743 197.193,168.87 198.27,168.87 C199.347,168.87 200.22,169.743 200.22,170.82 z" fill-opacity="0" stroke="#000000" stroke-width="1" stroke-linecap="round" stroke-linejoin="round" stroke-miterlimit="10"/>
    </g>
    <g>
      <path d="M179.89,171.09 C179.89,172.167 179.017,173.04 177.94,173.04 C176.863,173.04 175.99,172.167 175.99,171.09 C175.99,170.013 176.863,169.14 177.94,169.14 C179.017,169.14 179.89,170.013 179.89,171.09 z" fill="#000000"/>
      <path d="M179.89,171.09 C179.89,172.167 179.017,173.04 177.94,173.04 C176.863,173.04 175.99,172.167 175.99,171.09 C175.99,170.013 176.863,169.14 177.94,169.14 C179.017,169.14 179.89,170.013 179.89,171.09 z" fill-opacity="0" stroke="#000000" stroke-width="1" stroke-linecap="round" stroke-linejoin="round" stroke-miterlimit="10"/>
    </g>
    <g>
      <path d="M186.64,169.07 C186.64,170.147 185.767,171.02 184.69,171.02 C183.613,171.02 182.74,170.147 182.74,169.07 C182.74,167.993 183.613,167.12 184.69,167.12 C185.767,167.12 186.64,167.993 186.64,169.07 z" fill="#000000"/>
      <path d="M186.64,169.07 C186.64,170.147 185.767,171.02 184.69,171.02 C183.613,171.02 182.74,170.147 182.74,169.07 C182.74,167.993 183.613,167.12 184.69,167.12 C185.767,167.12 186.64,167.993 186.64,169.07 z" fill-opacity="0" stroke="#000000" stroke-width="1" stroke-linecap="round" stroke-linejoin="round" stroke-miterlimit="10"/>
    </g>
    <g>
      <path d="M192.14,194.53 C192.14,195.607 191.267,196.48 190.19,196.48 C189.113,196.48 188.24,195.607 188.24,194.53 C188.24,193.453 189.113,192.58 190.19,192.58 C191.267,192.58 192.14,193.453 192.14,194.53 z" fill="#000000"/>
      <path d="M192.14,194.53 C192.14,195.607 191.267,196.48 190.19,196.48 C189.113,196.48 188.24,195.607 188.24,194.53 C188.24,193.453 189.113,192.58 190.19,192.58 C191.267,192.58 192.14,193.453 192.14,194.53 z" fill-opacity="0" stroke="#000000" stroke-width="1" stroke-linecap="round" stroke-linejoin="round" stroke-miterlimit="10"/>
    </g>
    <g>
      <path d="M126.22,145.32 C126.22,146.397 125.347,147.27 124.27,147.27 C123.193,147.27 122.32,146.397 122.32,145.32 C122.32,144.243 123.193,143.37 124.27,143.37 C125.347,143.37 126.22,144.243 126.22,145.32 z" fill="#000000"/>
      <path d="M126.22,145.32 C126.22,146.397 125.347,147.27 124.27,147.27 C123.193,147.27 122.32,146.397 122.32,145.32 C122.32,144.243 123.193,143.37 124.27,143.37 C125.347,143.37 126.22,144.243 126.22,145.32 z" fill-opacity="0" stroke="#000000" stroke-width="1" stroke-linecap="round" stroke-linejoin="round" stroke-miterlimit="10"/>
    </g>
    <g>
      <path d="M193.27,192.84 C193.27,193.917 192.397,194.79 191.32,194.79 C190.243,194.79 189.37,193.917 189.37,192.84 C189.37,191.763 190.243,190.89 191.32,190.89 C192.397,190.89 193.27,191.763 193.27,192.84 z" fill="#000000"/>
      <path d="M193.27,192.84 C193.27,193.917 192.397,194.79 191.32,194.79 C190.243,194.79 189.37,193.917 189.37,192.84 C189.37,191.763 190.243,190.89 191.32,190.89 C192.397,190.89 193.27,191.763 193.27,192.84 z" fill-opacity="0" stroke="#000000" stroke-width="1" stroke-linecap="round" stroke-linejoin="round" stroke-miterlimit="10"/>
    </g>
    <g>
      <path d="M132.38,109.84 C132.38,110.917 131.507,111.79 130.43,111.79 C129.353,111.79 128.48,110.917 128.48,109.84 C128.48,108.763 129.353,107.89 130.43,107.89 C131.507,107.89 132.38,108.763 132.38,109.84 z" fill="#000000"/>
      <path d="M132.38,109.84 C132.38,110.917 131.507,111.79 130.43,111.79 C129.353,111.79 128.48,110.917 128.48,109.84 C128.48,108.763 129.353,107.89 130.43,107.89 C131.507,107.89 132.38,108.763 132.38,109.84 z" fill-opacity="0" stroke="#000000" stroke-width="1" stroke-linecap="round" stroke-linejoin="round" stroke-miterlimit="10"/>
    </g>
    <g>
      <path d="M127.59,141.19 C127.59,142.267 126.717,143.14 125.64,143.14 C124.563,143.14 123.69,142.267 123.69,141.19 C123.69,140.113 124.563,139.24 125.64,139.24 C126.717,139.24 127.59,140.113 127.59,141.19 z" fill="#000000"/>
      <path d="M127.59,141.19 C127.59,142.267 126.717,143.14 125.64,143.14 C124.563,143.14 123.69,142.267 123.69,141.19 C123.69,140.113 124.563,139.24 125.64,139.24 C126.717,139.24 127.59,140.113 127.59,141.19 z" fill-opacity="0" stroke="#000000" stroke-width="1" stroke-linecap="round" stroke-linejoin="round" stroke-miterlimit="10"/>
    </g>
    <g>
      <path d="M170.03,173.95 C170.03,175.027 169.157,175.9 168.08,175.9 C167.003,175.9 166.13,175.027 166.13,173.95 C166.13,172.873 167.003,172 168.08,172 C169.157,172 170.03,172.873 170.03,173.95 z" fill="#000000"/>
      <path d="M170.03,173.95 C170.03,175.027 169.157,175.9 168.08,175.9 C167.003,175.9 166.13,175.027 166.13,173.95 C166.13,172.873 167.003,172 168.08,172 C169.157,172 170.03,172.873 170.03,173.95 z" fill-opacity="0" stroke="#000000" stroke-width="1" stroke-linecap="round" stroke-linejoin="round" stroke-miterlimit="10"/>
    </g>
    <g>
      <path d="M200.57,183.83 C200.57,184.907 199.697,185.78 198.62,185.78 C197.543,185.78 196.67,184.907 196.67,183.83 C196.67,182.753 197.543,181.88 198.62,181.88 C199.697,181.88 200.57,182.753 200.57,183.83 z" fill="#000000"/>
      <path d="M200.57,183.83 C200.57,184.907 199.697,185.78 198.62,185.78 C197.543,185.78 196.67,184.907 196.67,183.83 C196.67,182.753 197.543,181.88 198.62,181.88 C199.697,181.88 200.57,182.753 200.57,183.83 z" fill-opacity="0" stroke="#000000" stroke-width="1" stroke-linecap="round" stroke-linejoin="round" stroke-miterlimit="10"/>
    </g>
    <g>
      <path d="M170.24,190.22 C170.24,191.297 169.367,192.17 168.29,192.17 C167.213,192.17 166.34,191.297 166.34,190.22 C166.34,189.143 167.213,188.27 168.29,188.27 C169.367,188.27 170.24,189.143 170.24,190.22 z" fill="#000000"/>
      <path d="M170.24,190.22 C170.24,191.297 169.367,192.17 168.29,192.17 C167.213,192.17 166.34,191.297 166.34,190.22 C166.34,189.143 167.213,188.27 168.29,188.27 C169.367,188.27 170.24,189.143 170.24,190.22 z" fill-opacity="0" stroke="#000000" stroke-width="1" stroke-linecap="round" stroke-linejoin="round" stroke-miterlimit="10"/>
    </g>
    <g>
      <path d="M193.26,189.62 C193.26,190.697 192.387,191.57 191.31,191.57 C190.233,191.57 189.36,190.697 189.36,189.62 C189.36,188.543 190.233,187.67 191.31,187.67 C192.387,187.67 193.26,188.543 193.26,189.62 z" fill="#000000"/>
      <path d="M193.26,189.62 C193.26,190.697 192.387,191.57 191.31,191.57 C190.233,191.57 189.36,190.697 189.36,189.62 C189.36,188.543 190.233,187.67 191.31,187.67 C192.387,187.67 193.26,188.543 193.26,189.62 z" fill-opacity="0" stroke="#000000" stroke-width="1" stroke-linecap="round" stroke-linejoin="round" stroke-miterlimit="10"/>
    </g>
    <g>
      <path d="M141.5,131.53 C141.5,132.607 140.627,133.48 139.55,133.48 C138.473,133.48 137.6,132.607 137.6,131.53 C137.6,130.453 138.473,129.58 139.55,129.58 C140.627,129.58 141.5,130.453 141.5,131.53 z" fill="#000000"/>
      <path d="M141.5,131.53 C141.5,132.607 140.627,133.48 139.55,133.48 C138.473,133.48 137.6,132.607 137.6,131.53 C137.6,130.453 138.473,129.58 139.55,129.58 C140.627,129.58 141.5,130.453 141.5,131.53 z" fill-opacity="0" stroke="#000000" stroke-width="1" stroke-linecap="round" stroke-linejoin="round" stroke-miterlimit="10"/>
    </g>
    <g>
      <path d="M205.41,192.84 C205.41,193.917 204.537,194.79 203.46,194.79 C202.383,194.79 201.51,193.917 201.51,192.84 C201.51,191.763 202.383,190.89 203.46,190.89 C204.537,190.89 205.41,191.763 205.41,192.84 z" fill="#000000"/>
      <path d="M205.41,192.84 C205.41,193.917 204.537,194.79 203.46,194.79 C202.383,194.79 201.51,193.917 201.51,192.84 C201.51,191.763 202.383,190.89 203.46,190.89 C204.537,190.89 205.41,191.763 205.41,192.84 z" fill-opacity="0" stroke="#000000" stroke-width="1" stroke-linecap="round" stroke-linejoin="round" stroke-miterlimit="10"/>
    </g>
    <g>
      <path d="M162.62,175.12 C162.62,176.197 161.747,177.07 160.67,177.07 C159.593,177.07 158.72,176.197 158.72,175.12 C158.72,174.043 159.593,173.17 160.67,173.17 C161.747,173.17 162.62,174.043 162.62,175.12 z" fill="#000000"/>
      <path d="M162.62,175.12 C162.62,176.197 161.747,177.07 160.67,177.07 C159.593,177.07 158.72,176.197 158.72,175.12 C158.72,174.043 159.593,173.17 160.67,173.17 C161.747,173.17 162.62,174.043 162.62,175.12 z" fill-opacity="0" stroke="#000000" stroke-width="1" stroke-linecap="round" stroke-linejoin="round" stroke-miterlimit="10"/>
    </g>
    <g>
      <path d="M238.65,176.04 C238.65,177.117 237.777,177.99 236.7,177.99 C235.623,177.99 234.75,177.117 234.75,176.04 C234.75,174.963 235.623,174.09 236.7,174.09 C237.777,174.09 238.65,174.963 238.65,176.04 z" fill="#000000"/>
      <path d="M238.65,176.04 C238.65,177.117 237.777,177.99 236.7,177.99 C235.623,177.99 234.75,177.117 234.75,176.04 C234.75,174.963 235.623,174.09 236.7,174.09 C237.777,174.09 238.65,174.963 238.65,176.04 z" fill-opacity="0" stroke="#000000" stroke-width="1" stroke-linecap="round" stroke-linejoin="round" stroke-miterlimit="10"/>
    </g>
    <g>
      <path d="M151.34,170.14 C151.34,171.217 150.467,172.09 149.39,172.09 C148.313,172.09 147.44,171.217 147.44,170.14 C147.44,169.063 148.313,168.19 149.39,168.19 C150.467,168.19 151.34,169.063 151.34,170.14 z" fill="#000000"/>
      <path d="M151.34,170.14 C151.34,171.217 150.467,172.09 149.39,172.09 C148.313,172.09 147.44,171.217 147.44,170.14 C147.44,169.063 148.313,168.19 149.39,168.19 C150.467,168.19 151.34,169.063 151.34,170.14 z" fill-opacity="0" stroke="#000000" stroke-width="1" stroke-linecap="round" stroke-linejoin="round" stroke-miterlimit="10"/>
    </g>
    <g>
      <path d="M236.53,195.22 C236.53,196.297 235.657,197.17 234.58,197.17 C233.503,197.17 232.63,196.297 232.63,195.22 C232.63,194.143 233.503,193.27 234.58,193.27 C235.657,193.27 236.53,194.143 236.53,195.22 z" fill="#000000"/>
      <path d="M236.53,195.22 C236.53,196.297 235.657,197.17 234.58,197.17 C233.503,197.17 232.63,196.297 232.63,195.22 C232.63,194.143 233.503,193.27 234.58,193.27 C235.657,193.27 236.53,194.143 236.53,195.22 z" fill-opacity="0" stroke="#000000" stroke-width="1" stroke-linecap="round" stroke-linejoin="round" stroke-miterlimit="10"/>
    </g>
    <g>
      <path d="M243.3,184.18 C243.3,185.257 242.427,186.13 241.35,186.13 C240.273,186.13 239.4,185.257 239.4,184.18 C239.4,183.103 240.273,182.23 241.35,182.23 C242.427,182.23 243.3,183.103 243.3,184.18 z" fill="#000000"/>
      <path d="M243.3,184.18 C243.3,185.257 242.427,186.13 241.35,186.13 C240.273,186.13 239.4,185.257 239.4,184.18 C239.4,183.103 240.273,182.23 241.35,182.23 C242.427,182.23 243.3,183.103 243.3,184.18 z" fill-opacity="0" stroke="#000000" stroke-width="1" stroke-linecap="round" stroke-linejoin="round" stroke-miterlimit="10"/>
    </g>
    <g>
      <path d="M195.13,153.13 C195.13,154.207 194.257,155.08 193.18,155.08 C192.103,155.08 191.23,154.207 191.23,153.13 C191.23,152.053 192.103,151.18 193.18,151.18 C194.257,151.18 195.13,152.053 195.13,153.13 z" fill="#000000"/>
      <path d="M195.13,153.13 C195.13,154.207 194.257,155.08 193.18,155.08 C192.103,155.08 191.23,154.207 191.23,153.13 C191.23,152.053 192.103,151.18 193.18,151.18 C194.257,151.18 195.13,152.053 195.13,153.13 z" fill-opacity="0" stroke="#000000" stroke-width="1" stroke-linecap="round" stroke-linejoin="round" stroke-miterlimit="10"/>
    </g>
    <g>
      <path d="M214.41,193.13 C214.41,194.207 213.537,195.08 212.46,195.08 C211.383,195.08 210.51,194.207 210.51,193.13 C210.51,192.053 211.383,191.18 212.46,191.18 C213.537,191.18 214.41,192.053 214.41,193.13 z" fill="#000000"/>
      <path d="M214.41,193.13 C214.41,194.207 213.537,195.08 212.46,195.08 C211.383,195.08 210.51,194.207 210.51,193.13 C210.51,192.053 211.383,191.18 212.46,191.18 C213.537,191.18 214.41,192.053 214.41,193.13 z" fill-opacity="0" stroke="#000000" stroke-width="1" stroke-linecap="round" stroke-linejoin="round" stroke-miterlimit="10"/>
    </g>
    <g>
      <path d="M96.87,18.14 C96.87,19.217 95.997,20.09 94.92,20.09 C93.843,20.09 92.97,19.217 92.97,18.14 C92.97,17.063 93.843,16.19 94.92,16.19 C95.997,16.19 96.87,17.063 96.87,18.14 z" fill="#000000"/>
      <path d="M96.87,18.14 C96.87,19.217 95.997,20.09 94.92,20.09 C93.843,20.09 92.97,19.217 92.97,18.14 C92.97,17.063 93.843,16.19 94.92,16.19 C95.997,16.19 96.87,17.063 96.87,18.14 z" fill-opacity="0" stroke="#000000" stroke-width="1" stroke-linecap="round" stroke-linejoin="round" stroke-miterlimit="10"/>
    </g>
    <g>
      <path d="M97.61,30.92 C97.61,31.997 96.737,32.87 95.66,32.87 C94.583,32.87 93.71,31.997 93.71,30.92 C93.71,29.843 94.583,28.97 95.66,28.97 C96.737,28.97 97.61,29.843 97.61,30.92 z" fill="#000000"/>
      <path d="M97.61,30.92 C97.61,31.997 96.737,32.87 95.66,32.87 C94.583,32.87 93.71,31.997 93.71,30.92 C93.71,29.843 94.583,28.97 95.66,28.97 C96.737,28.97 97.61,29.843 97.61,30.92 z" fill-opacity="0" stroke="#000000" stroke-width="1" stroke-linecap="round" stroke-linejoin="round" stroke-miterlimit="10"/>
    </g>
    <g>
      <path d="M166.93,157.84 C166.93,158.917 166.057,159.79 164.98,159.79 C163.903,159.79 163.03,158.917 163.03,157.84 C163.03,156.763 163.903,155.89 164.98,155.89 C166.057,155.89 166.93,156.763 166.93,157.84 z" fill="#000000"/>
      <path d="M166.93,157.84 C166.93,158.917 166.057,159.79 164.98,159.79 C163.903,159.79 163.03,158.917 163.03,157.84 C163.03,156.763 163.903,155.89 164.98,155.89 C166.057,155.89 166.93,156.763 166.93,157.84 z" fill-opacity="0" stroke="#000000" stroke-width="1" stroke-linecap="round" stroke-linejoin="round" stroke-miterlimit="10"/>
    </g>
    <g>
      <path d="M176.22,184.86 C176.22,185.937 175.347,186.81 174.27,186.81 C173.193,186.81 172.32,185.937 172.32,184.86 C172.32,183.783 173.193,182.91 174.27,182.91 C175.347,182.91 176.22,183.783 176.22,184.86 z" fill="#000000"/>
      <path d="M176.22,184.86 C176.22,185.937 175.347,186.81 174.27,186.81 C173.193,186.81 172.32,185.937 172.32,184.86 C172.32,183.783 173.193,182.91 174.27,182.91 C175.347,182.91 176.22,183.783 176.22,184.86 z" fill-opacity="0" stroke="#000000" stroke-width="1" stroke-linecap="round" stroke-linejoin="round" stroke-miterlimit="10"/>
    </g>
    <g>
      <path d="M227.24,186.96 C227.24,188.037 226.367,188.91 225.29,188.91 C224.213,188.91 223.34,188.037 223.34,186.96 C223.34,185.883 224.213,185.01 225.29,185.01 C226.367,185.01 227.24,185.883 227.24,186.96 z" fill="#000000"/>
      <path d="M227.24,186.96 C227.24,188.037 226.367,188.91 225.29,188.91 C224.213,188.91 223.34,188.037 223.34,186.96 C223.34,185.883 224.213,185.01 225.29,185.01 C226.367,185.01 227.24,185.883 227.24,186.96 z" fill-opacity="0" stroke="#000000" stroke-width="1" stroke-linecap="round" stroke-linejoin="round" stroke-miterlimit="10"/>
    </g>
    <g>
      <path d="M205.17,174.9 C205.17,175.977 204.297,176.85 203.22,176.85 C202.143,176.85 201.27,175.977 201.27,174.9 C201.27,173.823 202.143,172.95 203.22,172.95 C204.297,172.95 205.17,173.823 205.17,174.9 z" fill="#000000"/>
      <path d="M205.17,174.9 C205.17,175.977 204.297,176.85 203.22,176.85 C202.143,176.85 201.27,175.977 201.27,174.9 C201.27,173.823 202.143,172.95 203.22,172.95 C204.297,172.95 205.17,173.823 205.17,174.9 z" fill-opacity="0" stroke="#000000" stroke-width="1" stroke-linecap="round" stroke-linejoin="round" stroke-miterlimit="10"/>
    </g>
    <g>
      <path d="M142.1,176.73 C142.1,177.807 141.227,178.68 140.15,178.68 C139.073,178.68 138.2,177.807 138.2,176.73 C138.2,175.653 139.073,174.78 140.15,174.78 C141.227,174.78 142.1,175.653 142.1,176.73 z" fill="#000000"/>
      <path d="M142.1,176.73 C142.1,177.807 141.227,178.68 140.15,178.68 C139.073,178.68 138.2,177.807 138.2,176.73 C138.2,175.653 139.073,174.78 140.15,174.78 C141.227,174.78 142.1,175.653 142.1,176.73 z" fill-opacity="0" stroke="#000000" stroke-width="1" stroke-linecap="round" stroke-linejoin="round" stroke-miterlimit="10"/>
    </g>
    <g>
      <path d="M140.37,161.74 C140.37,162.817 139.497,163.69 138.42,163.69 C137.343,163.69 136.47,162.817 136.47,161.74 C136.47,160.663 137.343,159.79 138.42,159.79 C139.497,159.79 140.37,160.663 140.37,161.74 z" fill="#000000"/>
      <path d="M140.37,161.74 C140.37,162.817 139.497,163.69 138.42,163.69 C137.343,163.69 136.47,162.817 136.47,161.74 C136.47,160.663 137.343,159.79 138.42,159.79 C139.497,159.79 140.37,160.663 140.37,161.74 z" fill-opacity="0" stroke="#000000" stroke-width="1" stroke-linecap="round" stroke-linejoin="round" stroke-miterlimit="10"/>
    </g>
    <g>
      <path d="M206.96,176.7 C206.96,177.777 206.087,178.65 205.01,178.65 C203.933,178.65 203.06,177.777 203.06,176.7 C203.06,175.623 203.933,174.75 205.01,174.75 C206.087,174.75 206.96,175.623 206.96,176.7 z" fill="#000000"/>
      <path d="M206.96,176.7 C206.96,177.777 206.087,178.65 205.01,178.65 C203.933,178.65 203.06,177.777 203.06,176.7 C203.06,175.623 203.933,174.75 205.01,174.75 C206.087,174.75 206.96,175.623 206.96,176.7 z" fill-opacity="0" stroke="#000000" stroke-width="1" stroke-linecap="round" stroke-linejoin="round" stroke-miterlimit="10"/>
    </g>
    <g>
      <path d="M183.61,178.67 C183.61,179.747 182.737,180.62 181.66,180.62 C180.583,180.62 179.71,179.747 179.71,178.67 C179.71,177.593 180.583,176.72 181.66,176.72 C182.737,176.72 183.61,177.593 183.61,178.67 z" fill="#000000"/>
      <path d="M183.61,178.67 C183.61,179.747 182.737,180.62 181.66,180.62 C180.583,180.62 179.71,179.747 179.71,178.67 C179.71,177.593 180.583,176.72 181.66,176.72 C182.737,176.72 183.61,177.593 183.61,178.67 z" fill-opacity="0" stroke="#000000" stroke-width="1" stroke-linecap="round" stroke-linejoin="round" stroke-miterlimit="10"/>
    </g>
    <g>
      <path d="M147.37,157.33 C147.37,158.407 146.497,159.28 145.42,159.28 C144.343,159.28 143.47,158.407 143.47,157.33 C143.47,156.253 144.343,155.38 145.42,155.38 C146.497,155.38 147.37,156.253 147.37,157.33 z" fill="#000000"/>
      <path d="M147.37,157.33 C147.37,158.407 146.497,159.28 145.42,159.28 C144.343,159.28 143.47,158.407 143.47,157.33 C143.47,156.253 144.343,155.38 145.42,155.38 C146.497,155.38 147.37,156.253 147.37,157.33 z" fill-opacity="0" stroke="#000000" stroke-width="1" stroke-linecap="round" stroke-linejoin="round" stroke-miterlimit="10"/>
    </g>
    <g>
      <path d="M189.42,182.87 C189.42,183.947 188.547,184.82 187.47,184.82 C186.393,184.82 185.52,183.947 185.52,182.87 C185.52,181.793 186.393,180.92 187.47,180.92 C188.547,180.92 189.42,181.793 189.42,182.87 z" fill="#000000"/>
      <path d="M189.42,182.87 C189.42,183.947 188.547,184.82 187.47,184.82 C186.393,184.82 185.52,183.947 185.52,182.87 C185.52,181.793 186.393,180.92 187.47,180.92 C188.547,180.92 189.42,181.793 189.42,182.87 z" fill-opacity="0" stroke="#000000" stroke-width="1" stroke-linecap="round" stroke-linejoin="round" stroke-miterlimit="10"/>
    </g>
    <g>
      <path d="M229.82,223.33 C229.82,224.407 228.947,225.28 227.87,225.28 C226.793,225.28 225.92,224.407 225.92,223.33 C225.92,222.253 226.793,221.38 227.87,221.38 C228.947,221.38 229.82,222.253 229.82,223.33 z" fill="#000000"/>
      <path d="M229.82,223.33 C229.82,224.407 228.947,225.28 227.87,225.28 C226.793,225.28 225.92,224.407 225.92,223.33 C225.92,222.253 226.793,221.38 227.87,221.38 C228.947,221.38 229.82,222.253 229.82,223.33 z" fill-opacity="0" stroke="#000000" stroke-width="1" stroke-linecap="round" stroke-linejoin="round" stroke-miterlimit="10"/>
    </g>
    <g>
      <path d="M253.19,188.93 C253.19,190.007 252.317,190.88 251.24,190.88 C250.163,190.88 249.29,190.007 249.29,188.93 C249.29,187.853 250.163,186.98 251.24,186.98 C252.317,186.98 253.19,187.853 253.19,188.93 z" fill="#000000"/>
      <path d="M253.19,188.93 C253.19,190.007 252.317,190.88 251.24,190.88 C250.163,190.88 249.29,190.007 249.29,188.93 C249.29,187.853 250.163,186.98 251.24,186.98 C252.317,186.98 253.19,187.853 253.19,188.93 z" fill-opacity="0" stroke="#000000" stroke-width="1" stroke-linecap="round" stroke-linejoin="round" stroke-miterlimit="10"/>
    </g>
    <g>
      <path d="M212.82,215.14 C212.82,216.217 211.947,217.09 210.87,217.09 C209.793,217.09 208.92,216.217 208.92,215.14 C208.92,214.063 209.793,213.19 210.87,213.19 C211.947,213.19 212.82,214.063 212.82,215.14 z" fill="#000000"/>
      <path d="M212.82,215.14 C212.82,216.217 211.947,217.09 210.87,217.09 C209.793,217.09 208.92,216.217 208.92,215.14 C208.92,214.063 209.793,213.19 210.87,213.19 C211.947,213.19 212.82,214.063 212.82,215.14 z" fill-opacity="0" stroke="#000000" stroke-width="1" stroke-linecap="round" stroke-linejoin="round" stroke-miterlimit="10"/>
    </g>
    <g>
      <path d="M247.79,190.57 C247.79,191.647 246.917,192.52 245.84,192.52 C244.763,192.52 243.89,191.647 243.89,190.57 C243.89,189.493 244.763,188.62 245.84,188.62 C246.917,188.62 247.79,189.493 247.79,190.57 z" fill="#000000"/>
      <path d="M247.79,190.57 C247.79,191.647 246.917,192.52 245.84,192.52 C244.763,192.52 243.89,191.647 243.89,190.57 C243.89,189.493 244.763,188.62 245.84,188.62 C246.917,188.62 247.79,189.493 247.79,190.57 z" fill-opacity="0" stroke="#000000" stroke-width="1" stroke-linecap="round" stroke-linejoin="round" stroke-miterlimit="10"/>
    </g>
    <g>
      <path d="M201.89,149.04 C201.89,150.117 201.017,150.99 199.94,150.99 C198.863,150.99 197.99,150.117 197.99,149.04 C197.99,147.963 198.863,147.09 199.94,147.09 C201.017,147.09 201.89,147.963 201.89,149.04 z" fill="#000000"/>
      <path d="M201.89,149.04 C201.89,150.117 201.017,150.99 199.94,150.99 C198.863,150.99 197.99,150.117 197.99,149.04 C197.99,147.963 198.863,147.09 199.94,147.09 C201.017,147.09 201.89,147.963 201.89,149.04 z" fill-opacity="0" stroke="#000000" stroke-width="1" stroke-linecap="round" stroke-linejoin="round" stroke-miterlimit="10"/>
    </g>
    <g>
      <path d="M182.13,156.51 C182.13,157.587 181.257,158.46 180.18,158.46 C179.103,158.46 178.23,157.587 178.23,156.51 C178.23,155.433 179.103,154.56 180.18,154.56 C181.257,154.56 182.13,155.433 182.13,156.51 z" fill="#000000"/>
      <path d="M182.13,156.51 C182.13,157.587 181.257,158.46 180.18,158.46 C179.103,158.46 178.23,157.587 178.23,156.51 C178.23,155.433 179.103,154.56 180.18,154.56 C181.257,154.56 182.13,155.433 182.13,156.51 z" fill-opacity="0" stroke="#000000" stroke-width="1" stroke-linecap="round" stroke-linejoin="round" stroke-miterlimit="10"/>
    </g>
    <g>
      <path d="M161.44,172.98 C161.44,174.057 160.567,174.93 159.49,174.93 C158.413,174.93 157.54,174.057 157.54,172.98 C157.54,171.903 158.413,171.03 159.49,171.03 C160.567,171.03 161.44,171.903 161.44,172.98 z" fill="#000000"/>
      <path d="M161.44,172.98 C161.44,174.057 160.567,174.93 159.49,174.93 C158.413,174.93 157.54,174.057 157.54,172.98 C157.54,171.903 158.413,171.03 159.49,171.03 C160.567,171.03 161.44,171.903 161.44,172.98 z" fill-opacity="0" stroke="#000000" stroke-width="1" stroke-linecap="round" stroke-linejoin="round" stroke-miterlimit="10"/>
    </g>
    <g>
      <path d="M184.45,160.99 C184.45,162.067 183.577,162.94 182.5,162.94 C181.423,162.94 180.55,162.067 180.55,160.99 C180.55,159.913 181.423,159.04 182.5,159.04 C183.577,159.04 184.45,159.913 184.45,160.99 z" fill="#000000"/>
      <path d="M184.45,160.99 C184.45,162.067 183.577,162.94 182.5,162.94 C181.423,162.94 180.55,162.067 180.55,160.99 C180.55,159.913 181.423,159.04 182.5,159.04 C183.577,159.04 184.45,159.913 184.45,160.99 z" fill-opacity="0" stroke="#000000" stroke-width="1" stroke-linecap="round" stroke-linejoin="round" stroke-miterlimit="10"/>
    </g>
    <g>
      <path d="M201.24,185.07 C201.24,186.147 200.367,187.02 199.29,187.02 C198.213,187.02 197.34,186.147 197.34,185.07 C197.34,183.993 198.213,183.12 199.29,183.12 C200.367,183.12 201.24,183.993 201.24,185.07 z" fill="#000000"/>
      <path d="M201.24,185.07 C201.24,186.147 200.367,187.02 199.29,187.02 C198.213,187.02 197.34,186.147 197.34,185.07 C197.34,183.993 198.213,183.12 199.29,183.12 C200.367,183.12 201.24,183.993 201.24,185.07 z" fill-opacity="0" stroke="#000000" stroke-width="1" stroke-linecap="round" stroke-linejoin="round" stroke-miterlimit="10"/>
    </g>
    <g>
      <path d="M127.66,125.75 C127.66,126.827 126.787,127.7 125.71,127.7 C124.633,127.7 123.76,126.827 123.76,125.75 C123.76,124.673 124.633,123.8 125.71,123.8 C126.787,123.8 127.66,124.673 127.66,125.75 z" fill="#000000"/>
      <path d="M127.66,125.75 C127.66,126.827 126.787,127.7 125.71,127.7 C124.633,127.7 123.76,126.827 123.76,125.75 C123.76,124.673 124.633,123.8 125.71,123.8 C126.787,123.8 127.66,124.673 127.66,125.75 z" fill-opacity="0" stroke="#000000" stroke-width="1" stroke-linecap="round" stroke-linejoin="round" stroke-miterlimit="10"/>
    </g>
    <g>
      <path d="M179.45,224.02 C179.45,225.097 178.577,225.97 177.5,225.97 C176.423,225.97 175.55,225.097 175.55,224.02 C175.55,222.943 176.423,222.07 177.5,222.07 C178.577,222.07 179.45,222.943 179.45,224.02 z" fill="#000000"/>
      <path d="M179.45,224.02 C179.45,225.097 178.577,225.97 177.5,225.97 C176.423,225.97 175.55,225.097 175.55,224.02 C175.55,222.943 176.423,222.07 177.5,222.07 C178.577,222.07 179.45,222.943 179.45,224.02 z" fill-opacity="0" stroke="#000000" stroke-width="1" stroke-linecap="round" stroke-linejoin="round" stroke-miterlimit="10"/>
    </g>
    <g>
      <path d="M146.94,179.77 C146.94,180.847 146.067,181.72 144.99,181.72 C143.913,181.72 143.04,180.847 143.04,179.77 C143.04,178.693 143.913,177.82 144.99,177.82 C146.067,177.82 146.94,178.693 146.94,179.77 z" fill="#000000"/>
      <path d="M146.94,179.77 C146.94,180.847 146.067,181.72 144.99,181.72 C143.913,181.72 143.04,180.847 143.04,179.77 C143.04,178.693 143.913,177.82 144.99,177.82 C146.067,177.82 146.94,178.693 146.94,179.77 z" fill-opacity="0" stroke="#000000" stroke-width="1" stroke-linecap="round" stroke-linejoin="round" stroke-miterlimit="10"/>
    </g>
    <g>
      <path d="M124.52,188.81 C124.52,189.887 123.647,190.76 122.57,190.76 C121.493,190.76 120.62,189.887 120.62,188.81 C120.62,187.733 121.493,186.86 122.57,186.86 C123.647,186.86 124.52,187.733 124.52,188.81 z" fill="#000000"/>
      <path d="M124.52,188.81 C124.52,189.887 123.647,190.76 122.57,190.76 C121.493,190.76 120.62,189.887 120.62,188.81 C120.62,187.733 121.493,186.86 122.57,186.86 C123.647,186.86 124.52,187.733 124.52,188.81 z" fill-opacity="0" stroke="#000000" stroke-width="1" stroke-linecap="round" stroke-linejoin="round" stroke-miterlimit="10"/>
    </g>
    <g>
      <path d="M154.2,120.21 C154.2,121.287 153.327,122.16 152.25,122.16 C151.173,122.16 150.3,121.287 150.3,120.21 C150.3,119.133 151.173,118.26 152.25,118.26 C153.327,118.26 154.2,119.133 154.2,120.21 z" fill="#000000"/>
      <path d="M154.2,120.21 C154.2,121.287 153.327,122.16 152.25,122.16 C151.173,122.16 150.3,121.287 150.3,120.21 C150.3,119.133 151.173,118.26 152.25,118.26 C153.327,118.26 154.2,119.133 154.2,120.21 z" fill-opacity="0" stroke="#000000" stroke-width="1" stroke-linecap="round" stroke-linejoin="round" stroke-miterlimit="10"/>
    </g>
    <g>
      <path d="M208.37,177.85 C208.37,178.927 207.497,179.8 206.42,179.8 C205.343,179.8 204.47,178.927 204.47,177.85 C204.47,176.773 205.343,175.9 206.42,175.9 C207.497,175.9 208.37,176.773 208.37,177.85 z" fill="#000000"/>
      <path d="M208.37,177.85 C208.37,178.927 207.497,179.8 206.42,179.8 C205.343,179.8 204.47,178.927 204.47,177.85 C204.47,176.773 205.343,175.9 206.42,175.9 C207.497,175.9 208.37,176.773 208.37,177.85 z" fill-opacity="0" stroke="#000000" stroke-width="1" stroke-linecap="round" stroke-linejoin="round" stroke-miterlimit="10"/>
    </g>
    <g>
      <path d="M147.95,85.31 C147.95,86.387 147.077,87.26 146,87.26 C144.923,87.26 144.05,86.387 144.05,85.31 C144.05,84.233 144.923,83.36 146,83.36 C147.077,83.36 147.95,84.233 147.95,85.31 z" fill="#000000"/>
      <path d="M147.95,85.31 C147.95,86.387 147.077,87.26 146,87.26 C144.923,87.26 144.05,86.387 144.05,85.31 C144.05,84.233 144.923,83.36 146,83.36 C147.077,83.36 147.95,84.233 147.95,85.31 z" fill-opacity="0" stroke="#000000" stroke-width="1" stroke-linecap="round" stroke-linejoin="round" stroke-miterlimit="10"/>
    </g>
    <g>
      <path d="M207.29,168.22 C207.29,169.297 206.417,170.17 205.34,170.17 C204.263,170.17 203.39,169.297 203.39,168.22 C203.39,167.143 204.263,166.27 205.34,166.27 C206.417,166.27 207.29,167.143 207.29,168.22 z" fill="#000000"/>
      <path d="M207.29,168.22 C207.29,169.297 206.417,170.17 205.34,170.17 C204.263,170.17 203.39,169.297 203.39,168.22 C203.39,167.143 204.263,166.27 205.34,166.27 C206.417,166.27 207.29,167.143 207.29,168.22 z" fill-opacity="0" stroke="#000000" stroke-width="1" stroke-linecap="round" stroke-linejoin="round" stroke-miterlimit="10"/>
    </g>
    <g>
      <path d="M203.58,191.81 C203.58,192.887 202.707,193.76 201.63,193.76 C200.553,193.76 199.68,192.887 199.68,191.81 C199.68,190.733 200.553,189.86 201.63,189.86 C202.707,189.86 203.58,190.733 203.58,191.81 z" fill="#000000"/>
      <path d="M203.58,191.81 C203.58,192.887 202.707,193.76 201.63,193.76 C200.553,193.76 199.68,192.887 199.68,191.81 C199.68,190.733 200.553,189.86 201.63,189.86 C202.707,189.86 203.58,190.733 203.58,191.81 z" fill-opacity="0" stroke="#000000" stroke-width="1" stroke-linecap="round" stroke-linejoin="round" stroke-miterlimit="10"/>
    </g>
    <g>
      <path d="M176.56,137.69 C176.56,138.767 175.687,139.64 174.61,139.64 C173.533,139.64 172.66,138.767 172.66,137.69 C172.66,136.613 173.533,135.74 174.61,135.74 C175.687,135.74 176.56,136.613 176.56,137.69 z" fill="#000000"/>
      <path d="M176.56,137.69 C176.56,138.767 175.687,139.64 174.61,139.64 C173.533,139.64 172.66,138.767 172.66,137.69 C172.66,136.613 173.533,135.74 174.61,135.74 C175.687,135.74 176.56,136.613 176.56,137.69 z" fill-opacity="0" stroke="#000000" stroke-width="1" stroke-linecap="round" stroke-linejoin="round" stroke-miterlimit="10"/>
    </g>
    <g>
      <path d="M171.65,205.77 C171.65,206.847 170.777,207.72 169.7,207.72 C168.623,207.72 167.75,206.847 167.75,205.77 C167.75,204.693 168.623,203.82 169.7,203.82 C170.777,203.82 171.65,204.693 171.65,205.77 z" fill="#000000"/>
      <path d="M171.65,205.77 C171.65,206.847 170.777,207.72 169.7,207.72 C168.623,207.72 167.75,206.847 167.75,205.77 C167.75,204.693 168.623,203.82 169.7,203.82 C170.777,203.82 171.65,204.693 171.65,205.77 z" fill-opacity="0" stroke="#000000" stroke-width="1" stroke-linecap="round" stroke-linejoin="round" stroke-miterlimit="10"/>
    </g>
    <g>
      <path d="M180.9,196.59 C180.9,197.667 180.027,198.54 178.95,198.54 C177.873,198.54 177,197.667 177,196.59 C177,195.513 177.873,194.64 178.95,194.64 C180.027,194.64 180.9,195.513 180.9,196.59 z" fill="#000000"/>
      <path d="M180.9,196.59 C180.9,197.667 180.027,198.54 178.95,198.54 C177.873,198.54 177,197.667 177,196.59 C177,195.513 177.873,194.64 178.95,194.64 C180.027,194.64 180.9,195.513 180.9,196.59 z" fill-opacity="0" stroke="#000000" stroke-width="1" stroke-linecap="round" stroke-linejoin="round" stroke-miterlimit="10"/>
    </g>
    <g>
      <path d="M210.52,209.56 C210.52,210.637 209.647,211.51 208.57,211.51 C207.493,211.51 206.62,210.637 206.62,209.56 C206.62,208.483 207.493,207.61 208.57,207.61 C209.647,207.61 210.52,208.483 210.52,209.56 z" fill="#000000"/>
      <path d="M210.52,209.56 C210.52,210.637 209.647,211.51 208.57,211.51 C207.493,211.51 206.62,210.637 206.62,209.56 C206.62,208.483 207.493,207.61 208.57,207.61 C209.647,207.61 210.52,208.483 210.52,209.56 z" fill-opacity="0" stroke="#000000" stroke-width="1" stroke-linecap="round" stroke-linejoin="round" stroke-miterlimit="10"/>
    </g>
    <g>
      <path d="M188.78,187.56 C188.78,188.637 187.907,189.51 186.83,189.51 C185.753,189.51 184.88,188.637 184.88,187.56 C184.88,186.483 185.753,185.61 186.83,185.61 C187.907,185.61 188.78,186.483 188.78,187.56 z" fill="#000000"/>
      <path d="M188.78,187.56 C188.78,188.637 187.907,189.51 186.83,189.51 C185.753,189.51 184.88,188.637 184.88,187.56 C184.88,186.483 185.753,185.61 186.83,185.61 C187.907,185.61 188.78,186.483 188.78,187.56 z" fill-opacity="0" stroke="#000000" stroke-width="1" stroke-linecap="round" stroke-linejoin="round" stroke-miterlimit="10"/>
    </g>
    <g>
      <path d="M222.53,196.75 C222.53,197.827 221.657,198.7 220.58,198.7 C219.503,198.7 218.63,197.827 218.63,196.75 C218.63,195.673 219.503,194.8 220.58,194.8 C221.657,194.8 222.53,195.673 222.53,196.75 z" fill="#000000"/>
      <path d="M222.53,196.75 C222.53,197.827 221.657,198.7 220.58,198.7 C219.503,198.7 218.63,197.827 218.63,196.75 C218.63,195.673 219.503,194.8 220.58,194.8 C221.657,194.8 222.53,195.673 222.53,196.75 z" fill-opacity="0" stroke="#000000" stroke-width="1" stroke-linecap="round" stroke-linejoin="round" stroke-miterlimit="10"/>
    </g>
    <g>
      <path d="M177.06,142.33 C177.06,143.407 176.187,144.28 175.11,144.28 C174.033,144.28 173.16,143.407 173.16,142.33 C173.16,141.253 174.033,140.38 175.11,140.38 C176.187,140.38 177.06,141.253 177.06,142.33 z" fill="#000000"/>
      <path d="M177.06,142.33 C177.06,143.407 176.187,144.28 175.11,144.28 C174.033,144.28 173.16,143.407 173.16,142.33 C173.16,141.253 174.033,140.38 175.11,140.38 C176.187,140.38 177.06,141.253 177.06,142.33 z" fill-opacity="0" stroke="#000000" stroke-width="1" stroke-linecap="round" stroke-linejoin="round" stroke-miterlimit="10"/>
    </g>
    <g>
      <path d="M216.39,183.18 C216.39,184.257 215.517,185.13 214.44,185.13 C213.363,185.13 212.49,184.257 212.49,183.18 C212.49,182.103 213.363,181.23 214.44,181.23 C215.517,181.23 216.39,182.103 216.39,183.18 z" fill="#000000"/>
      <path d="M216.39,183.18 C216.39,184.257 215.517,185.13 214.44,185.13 C213.363,185.13 212.49,184.257 212.49,183.18 C212.49,182.103 213.363,181.23 214.44,181.23 C215.517,181.23 216.39,182.103 216.39,183.18 z" fill-opacity="0" stroke="#000000" stroke-width="1" stroke-linecap="round" stroke-linejoin="round" stroke-miterlimit="10"/>
    </g>
    <g>
      <path d="M155.94,151 C155.94,152.077 155.067,152.95 153.99,152.95 C152.913,152.95 152.04,152.077 152.04,151 C152.04,149.923 152.913,149.05 153.99,149.05 C155.067,149.05 155.94,149.923 155.94,151 z" fill="#000000"/>
      <path d="M155.94,151 C155.94,152.077 155.067,152.95 153.99,152.95 C152.913,152.95 152.04,152.077 152.04,151 C152.04,149.923 152.913,149.05 153.99,149.05 C155.067,149.05 155.94,149.923 155.94,151 z" fill-opacity="0" stroke="#000000" stroke-width="1" stroke-linecap="round" stroke-linejoin="round" stroke-miterlimit="10"/>
    </g>
    <path d="M271.32,194.5 L269.12,194.18 L266.93,193.85 L264.73,193.52 L262.54,193.18 L260.34,192.84 L258.15,192.49 L255.95,192.13 L253.75,191.76 L251.56,191.39 L249.36,191 L247.17,190.61 L244.97,190.21 L242.78,189.8 L240.58,189.39 L238.38,188.96 L236.19,188.52 L233.99,188.07 L231.8,187.61 L229.6,187.15 L227.41,186.66 L225.21,186.17 L223.02,185.67 L220.82,185.15 L218.62,184.62 L216.43,184.07 L214.23,183.51 L212.04,182.94 L209.84,182.35 L207.65,181.75 L205.45,181.12 L203.26,180.48 L201.06,179.83 L198.86,179.15 L196.67,178.45 L194.47,177.73 L192.28,177 L190.08,176.23 L187.89,175.45 L185.69,174.64 L183.5,173.8 L181.3,172.94 L179.1,172.05 L176.91,171.13 L174.71,170.17 L172.52,169.19 L170.32,168.16 L168.13,167.11 L165.93,166.01 L163.74,164.87 L161.54,163.69 L159.34,162.46 L157.15,161.18 L154.95,159.85 L152.76,158.47 L150.56,157.03 L148.37,155.52 L146.17,153.95 L143.98,152.31 L141.78,150.6 L139.58,148.8 L137.39,146.92 L135.19,144.94 L133,142.86 L130.8,140.68 L128.61,138.37 L126.41,135.95 L124.21,133.38 L122.02,130.67 L119.82,127.79 L117.63,124.74 L115.43,121.5 L113.24,118.04 L111.04,114.35 L108.85,110.4 L106.65,106.17 L104.45,101.61 L102.26,96.71 L100.06,91.4 L97.87,85.65 L95.67,79.39 L93.48,72.56 L91.28,65.07 L89.09,56.82 L86.89,47.7 L84.69,37.56 L82.5,26.23 L80.3,13.48 L79.083,5.48" fill-opacity="0" stroke="#F8766D" stroke-width="2" stroke-linejoin="round" stroke-miterlimit="10"/>
    <path d="M76.256,5.48 L78.11,18.31 L80.3,31.63 L82.5,43.37 L84.69,53.79 L86.89,63.11 L89.09,71.48 L91.28,79.05 L93.48,85.92 L95.67,92.18 L97.87,97.92 L100.06,103.18 L102.26,108.04 L104.45,112.53 L106.65,116.7 L108.85,120.57 L111.04,124.18 L113.24,127.56 L115.43,130.72 L117.63,133.68 L119.82,136.47 L122.02,139.1 L124.21,141.58 L126.41,143.92 L128.61,146.14 L130.8,148.24 L133,150.24 L135.19,152.13 L137.39,153.94 L139.58,155.66 L141.78,157.3 L143.98,158.86 L146.17,160.36 L148.37,161.8 L150.56,163.17 L152.76,164.48 L154.95,165.75 L157.15,166.96 L159.34,168.12 L161.54,169.25 L163.74,170.32 L165.93,171.36 L168.13,172.36 L170.32,173.33 L172.52,174.26 L174.71,175.16 L176.91,176.03 L179.1,176.87 L181.3,177.69 L183.5,178.47 L185.69,179.24 L187.89,179.98 L190.08,180.69 L192.28,181.39 L194.47,182.06 L196.67,182.71 L198.86,183.35 L201.06,183.97 L203.26,184.57 L205.45,185.15 L207.65,185.72 L209.84,186.27 L212.04,186.81 L214.23,187.33 L216.43,187.84 L218.62,188.34 L220.82,188.82 L223.02,189.29 L225.21,189.75 L227.41,190.2 L229.6,190.64 L231.8,191.07 L233.99,191.49 L236.19,191.9 L238.38,192.3 L240.58,192.69 L242.78,193.07 L244.97,193.44 L247.17,193.8 L249.36,194.16 L251.56,194.51 L253.75,194.85 L255.95,195.19 L258.15,195.51 L260.34,195.84 L262.54,196.15 L264.73,196.46 L266.93,196.76 L269.12,197.05 L271.32,197.34 L271.32,191.29 L269.12,190.94 L266.93,190.59 L264.73,190.22 L262.54,189.85 L260.34,189.47 L258.15,189.09 L255.95,188.69 L253.75,188.29 L251.56,187.88 L249.36,187.46 L247.17,187.03 L244.97,186.59 L242.78,186.14 L240.58,185.68 L238.38,185.21 L236.19,184.73 L233.99,184.23 L231.8,183.73 L229.6,183.21 L227.41,182.69 L225.21,182.14 L223.02,181.59 L220.82,181.02 L218.62,180.44 L216.43,179.84 L214.23,179.22 L212.04,178.59 L209.84,177.94 L207.65,177.28 L205.45,176.6 L203.26,175.89 L201.06,175.17 L198.86,174.43 L196.67,173.66 L194.47,172.87 L192.28,172.06 L190.08,171.22 L187.89,170.36 L185.69,169.47 L183.5,168.55 L181.3,167.61 L179.1,166.63 L176.91,165.61 L174.71,164.57 L172.52,163.48 L170.32,162.36 L168.13,161.2 L165.93,159.99 L163.74,158.74 L161.54,157.44 L159.34,156.09 L157.15,154.69 L154.95,153.23 L152.76,151.71 L150.56,150.13 L148.37,148.48 L146.17,146.76 L143.98,144.96 L141.78,143.07 L139.58,141.1 L137.39,139.03 L135.19,136.86 L133,134.58 L130.8,132.19 L128.61,129.66 L126.41,127 L124.21,124.19 L122.02,121.21 L119.82,118.06 L117.63,114.71 L115.43,111.16 L113.24,107.37 L111.04,103.33 L108.85,99 L106.65,94.37 L104.45,89.38 L102.26,84.01 L100.06,78.21 L97.87,71.92 L95.67,65.09 L93.48,57.62 L91.28,49.45 L89.09,40.46 L86.89,30.52 L84.69,19.48 L82.5,7.16 L82.232,5.48 z" fill="#F8766D" opacity="0.245"/>
    <path d="M271.32,211.81 L269.12,211.5 L266.93,211.17 L264.73,210.84 L262.54,210.5 L260.34,210.16 L258.15,209.8 L255.95,209.44 L253.75,209.08 L251.56,208.7 L249.36,208.32 L247.17,207.92 L244.97,207.52 L242.78,207.11 L240.58,206.69 L238.38,206.27 L236.19,205.83 L233.99,205.38 L231.8,204.92 L229.6,204.45 L227.41,203.97 L225.21,203.47 L223.02,202.97 L220.82,202.45 L218.62,201.92 L216.43,201.37 L214.23,200.81 L212.04,200.23 L209.84,199.64 L207.65,199.04 L205.45,198.41 L203.26,197.77 L201.06,197.11 L198.86,196.43 L196.67,195.73 L194.47,195.02 L192.28,194.27 L190.08,193.51 L187.89,192.72 L185.69,191.91 L183.5,191.07 L181.3,190.21 L179.1,189.31 L176.91,188.39 L174.71,187.43 L172.52,186.44 L170.32,185.42 L168.13,184.36 L165.93,183.25 L163.74,182.11 L161.54,180.93 L159.34,179.69 L157.15,178.41 L154.95,177.08 L152.76,175.69 L150.56,174.24 L148.37,172.73 L146.17,171.16 L143.98,169.51 L141.78,167.79 L139.58,165.98 L137.39,164.09 L135.19,162.11 L133,160.02 L130.8,157.83 L128.61,155.51 L126.41,153.08 L124.21,150.5 L122.02,147.77 L119.82,144.88 L117.63,141.82 L115.43,138.56 L113.24,135.08 L111.04,131.37 L108.85,127.4 L106.65,123.14 L104.45,118.56 L102.26,113.62 L100.06,108.28 L97.87,102.49 L95.67,96.19 L93.48,89.31 L91.28,81.76 L89.09,73.45 L86.89,64.26 L84.69,54.03 L82.5,42.59 L80.3,29.72 L78.11,15.13 L76.834,5.48" fill-opacity="0" stroke="#00BFC4" stroke-width="2" stroke-dasharray="0,0,4" stroke-linejoin="round" stroke-miterlimit="10"/>
    <path d="M36.08,255.41 L36.08,5.48" fill-opacity="0" stroke="#000000" stroke-width="1" stroke-linejoin="round" stroke-miterlimit="10"/>
    <g clip-path="url(#Clip_1)">
      <text transform="matrix(1, 0, 0, 1, 29.197, 244.7)">
        <tspan x="-2.947" y="2.5" font-family="ArialMT" font-size="8.8" fill="#4D4D4D">0</tspan>
      </text>
    </g>
    <g clip-path="url(#Clip_2)">
      <text transform="matrix(1, 0, 0, 1, 29.197, 168.96)">
        <tspan x="-2.947" y="2.5" font-family="ArialMT" font-size="8.8" fill="#4D4D4D">5</tspan>
      </text>
    </g>
    <g clip-path="url(#Clip_3)">
      <text transform="matrix(1, 0, 0, 1, 26.754, 93.23)">
        <tspan x="-5.394" y="2.5" font-family="ArialMT" font-size="8.8" fill="#4D4D4D">10</tspan>
      </text>
    </g>
    <g clip-path="url(#Clip_4)">
      <text transform="matrix(1, 0, 0, 1, 26.754, 17.49)">
        <tspan x="-5.394" y="2.5" font-family="ArialMT" font-size="8.8" fill="#4D4D4D">15</tspan>
      </text>
    </g>
    <path d="M33.34,244.05 L36.08,244.05" fill-opacity="0" stroke="#333333" stroke-width="1" stroke-linejoin="round" stroke-miterlimit="10"/>
    <path d="M33.34,168.31 L36.08,168.31" fill-opacity="0" stroke="#333333" stroke-width="1" stroke-linejoin="round" stroke-miterlimit="10"/>
    <path d="M33.34,92.58 L36.08,92.58" fill-opacity="0" stroke="#333333" stroke-width="1" stroke-linejoin="round" stroke-miterlimit="10"/>
    <path d="M33.34,16.84 L36.08,16.84" fill-opacity="0" stroke="#333333" stroke-width="1" stroke-linejoin="round" stroke-miterlimit="10"/>
    <path d="M36.08,255.41 L282.52,255.41" fill-opacity="0" stroke="#000000" stroke-width="1" stroke-linejoin="round" stroke-miterlimit="10"/>
    <path d="M47.28,258.15 L47.28,255.41" fill-opacity="0" stroke="#333333" stroke-width="1" stroke-linejoin="round" stroke-miterlimit="10"/>
    <path d="M92.09,258.15 L92.09,255.41" fill-opacity="0" stroke="#333333" stroke-width="1" stroke-linejoin="round" stroke-miterlimit="10"/>
    <path d="M136.9,258.15 L136.9,255.41" fill-opacity="0" stroke="#333333" stroke-width="1" stroke-linejoin="round" stroke-miterlimit="10"/>
    <path d="M181.7,258.15 L181.7,255.41" fill-opacity="0" stroke="#333333" stroke-width="1" stroke-linejoin="round" stroke-miterlimit="10"/>
    <path d="M226.51,258.15 L226.51,255.41" fill-opacity="0" stroke="#333333" stroke-width="1" stroke-linejoin="round" stroke-miterlimit="10"/>
    <path d="M271.32,258.15 L271.32,255.41" fill-opacity="0" stroke="#333333" stroke-width="1" stroke-linejoin="round" stroke-miterlimit="10"/>
    <g clip-path="url(#Clip_5)">
      <text transform="matrix(1, 0, 0, 1, 47.777, 264.14)">
        <tspan x="-2.947" y="2.5" font-family="ArialMT" font-size="8.8" fill="#4D4D4D">0</tspan>
      </text>
    </g>
    <g clip-path="url(#Clip_6)">
      <text transform="matrix(1, 0, 0, 1, 92.584, 264.14)">
        <tspan x="-5.394" y="2.5" font-family="ArialMT" font-size="8.8" fill="#4D4D4D">10</tspan>
      </text>
    </g>
    <g clip-path="url(#Clip_7)">
      <text transform="matrix(1, 0, 0, 1, 137.394, 264.14)">
        <tspan x="-5.394" y="2.5" font-family="ArialMT" font-size="8.8" fill="#4D4D4D">20</tspan>
      </text>
    </g>
    <g clip-path="url(#Clip_8)">
      <text transform="matrix(1, 0, 0, 1, 182.204, 264.14)">
        <tspan x="-5.394" y="2.5" font-family="ArialMT" font-size="8.8" fill="#4D4D4D">30</tspan>
      </text>
    </g>
    <g clip-path="url(#Clip_9)">
      <text transform="matrix(1, 0, 0, 1, 227.014, 264.14)">
        <tspan x="-5.394" y="2.5" font-family="ArialMT" font-size="8.8" fill="#4D4D4D">40</tspan>
      </text>
    </g>
    <g clip-path="url(#Clip_10)">
      <text transform="matrix(1, 0, 0, 1, 271.814, 264.14)">
        <tspan x="-5.394" y="2.5" font-family="ArialMT" font-size="8.8" fill="#4D4D4D">50</tspan>
      </text>
    </g>
    <g clip-path="url(#Clip_11)">
      <text transform="matrix(1, 0, 0, 1, 159.8, 277)">
        <tspan x="-35.34" y="3" font-family="ArialMT" font-size="11" fill="#000000">distance (mm)</tspan>
      </text>
    </g>
    <g clip-path="url(#Clip_12)">
      <text transform="matrix(0, -1, 1, 0, 10.35, 129.946)">
        <tspan x="-54.614" y="3" font-family="ArialMT" font-size="11" fill="#000000">visual angle (degrees)</tspan>
      </text>
    </g>
    <path d="M177.64,5.36 L264.17,5.36 L264.17,55.58 L177.64,55.58 z" fill="#FFFFFF"/>
    <path d="M185.04,23.99 L198.86,23.99" fill-opacity="0" stroke="#F8766D" stroke-width="1" stroke-linejoin="round" stroke-miterlimit="10"/>
    <path d="M185.04,23.99 L198.86,23.99" fill-opacity="0" stroke="#F8766D" stroke-width="1" stroke-linejoin="round" stroke-miterlimit="10"/>
    <path d="M185.04,23.99 L198.86,23.99" fill-opacity="0" stroke="#F8766D" stroke-width="1" stroke-linejoin="round" stroke-miterlimit="10"/>
    <path d="M185.04,23.99 L198.86,23.99" fill-opacity="0" stroke="#F8766D" stroke-width="1" stroke-dasharray="1.42,4.27" stroke-linejoin="round" stroke-miterlimit="10"/>
    <path d="M185.04,41.27 L198.86,41.27" fill-opacity="0" stroke="#00BFC4" stroke-width="1" stroke-linejoin="round" stroke-miterlimit="10"/>
    <path d="M185.04,41.27 L198.86,41.27" fill-opacity="0" stroke="#00BFC4" stroke-width="1" stroke-linejoin="round" stroke-miterlimit="10"/>
    <path d="M185.04,41.27 L198.86,41.27" fill-opacity="0" stroke="#00BFC4" stroke-width="1" stroke-linejoin="round" stroke-miterlimit="10"/>
    <path d="M185.04,41.27 L198.86,41.27" fill-opacity="0" stroke="#00BFC4" stroke-width="1" stroke-dasharray="1.42,4.27" stroke-linejoin="round" stroke-miterlimit="10"/>
    <g clip-path="url(#Clip_13)">
      <text transform="matrix(1, 0, 0, 1, 231.128, 24.64)">
        <tspan x="-28.378" y="2.5" font-family="ArialMT" font-size="8.8" fill="#000000">dynamic wave</tspan>
      </text>
    </g>
    <g clip-path="url(#Clip_14)">
      <text transform="matrix(1, 0, 0, 1, 225.014, 41.92)">
        <tspan x="-22.264" y="2.5" font-family="ArialMT" font-size="8.8" fill="#000000">static wave</tspan>
      </text>
    </g>
  </g>
</svg>
